<svg width="1420" height="40" viewBox="0 0 1420 40" fill="none" xmlns="http://www.w3.org/2000/svg">
<path d="M814.791 13.769C816.33 13.769 817.7 14.0695 818.902 14.6704C820.128 15.2714 821.089 16.1968 821.786 17.4468C822.483 18.6727 822.832 20.2592 822.832 22.2062V33.2394H818.325V22.7831C818.325 21.0764 817.916 19.8025 817.099 18.9611C816.306 18.1198 815.188 17.6992 813.746 17.6992C812.688 17.6992 811.751 17.9155 810.933 18.3482C810.116 18.7809 809.479 19.4299 809.022 20.2952C808.59 21.1365 808.373 22.2062 808.373 23.5042V33.2394H803.866V13.9854H808.157V19.1775L807.4 17.591C808.073 16.3651 809.046 15.4276 810.32 14.7786C811.618 14.1055 813.109 13.769 814.791 13.769Z" fill="black"/>
<path d="M795.63 33.2394V29.3454L795.378 28.5161V21.7014C795.378 20.3794 794.981 19.3578 794.188 18.6366C793.395 17.8915 792.193 17.5189 790.582 17.5189C789.501 17.5189 788.431 17.6871 787.373 18.0237C786.34 18.3602 785.462 18.8289 784.741 19.4299L782.974 16.1487C784.008 15.3555 785.234 14.7666 786.652 14.382C788.094 13.9733 789.585 13.769 791.123 13.769C793.911 13.769 796.063 14.4421 797.577 15.7882C799.116 17.1102 799.885 19.1655 799.885 21.9538V33.2394H795.63ZM789.573 33.4918C788.13 33.4918 786.868 33.2515 785.787 32.7707C784.705 32.2659 783.864 31.5809 783.263 30.7155C782.686 29.8261 782.397 28.8286 782.397 27.7228C782.397 26.6411 782.65 25.6676 783.155 24.8023C783.683 23.9369 784.537 23.2518 785.715 22.7471C786.892 22.2423 788.455 21.9899 790.402 21.9899H795.991V24.9825H790.726C789.188 24.9825 788.154 25.2349 787.626 25.7397C787.097 26.2205 786.832 26.8214 786.832 27.5425C786.832 28.3598 787.157 29.0088 787.806 29.4896C788.455 29.9703 789.356 30.2107 790.51 30.2107C791.616 30.2107 792.601 29.9583 793.467 29.4535C794.356 28.9487 794.993 28.2036 795.378 27.218L796.135 29.9223C795.702 31.052 794.921 31.9294 793.791 32.5544C792.686 33.1794 791.279 33.4918 789.573 33.4918Z" fill="black"/>
<path d="M772.72 33.4918C770.58 33.4918 768.705 33.0712 767.095 32.2299C765.508 31.3645 764.27 30.1867 763.381 28.6963C762.516 27.206 762.083 25.5114 762.083 23.6124C762.083 21.6894 762.504 19.9948 763.345 18.5285C764.21 17.0381 765.388 15.8723 766.878 15.031C768.393 14.1897 770.112 13.769 772.035 13.769C773.909 13.769 775.58 14.1777 777.046 14.9949C778.513 15.8122 779.666 16.966 780.508 18.4563C781.349 19.9467 781.77 21.7014 781.77 23.7206C781.77 23.9129 781.758 24.1292 781.734 24.3696C781.734 24.61 781.722 24.8383 781.698 25.0547H765.653V22.062H779.318L777.551 22.9994C777.575 21.8937 777.347 20.9202 776.866 20.0789C776.385 19.2376 775.724 18.5765 774.883 18.0958C774.066 17.615 773.116 17.3747 772.035 17.3747C770.929 17.3747 769.955 17.615 769.114 18.0958C768.297 18.5765 767.648 19.2496 767.167 20.1149C766.71 20.9563 766.482 21.9538 766.482 23.1076V23.8287C766.482 24.9825 766.746 26.0041 767.275 26.8935C767.804 27.7829 768.549 28.468 769.511 28.9487C770.472 29.4295 771.578 29.6699 772.828 29.6699C773.909 29.6699 774.883 29.5016 775.748 29.1651C776.614 28.8286 777.383 28.2997 778.056 27.5786L780.472 30.3549C779.606 31.3645 778.513 32.1457 777.191 32.6986C775.893 33.2274 774.402 33.4918 772.72 33.4918Z" fill="black"/>
<path d="M755.05 33.2395V6.4857H759.557V33.2395H755.05Z" fill="black"/>
<path d="M742.769 33.6001C740.846 33.6001 739.055 33.2876 737.397 32.6627C735.762 32.0137 734.332 31.1122 733.106 29.9584C731.904 28.7806 730.967 27.3984 730.294 25.812C729.621 24.2255 729.284 22.4948 729.284 20.6198C729.284 18.7449 729.621 17.0142 730.294 15.4277C730.967 13.8413 731.916 12.4711 733.142 11.3173C734.368 10.1395 735.798 9.23807 737.433 8.61309C739.067 7.96407 740.858 7.63957 742.805 7.63957C744.873 7.63957 746.759 8.00013 748.466 8.72126C750.173 9.41835 751.615 10.464 752.793 11.8582L749.764 14.7066C748.851 13.7211 747.829 12.9879 746.699 12.5072C745.57 12.0024 744.344 11.75 743.022 11.75C741.7 11.75 740.486 11.9663 739.38 12.399C738.298 12.8317 737.349 13.4446 736.532 14.2379C735.738 15.0311 735.113 15.9686 734.657 17.0503C734.224 18.132 734.008 19.3218 734.008 20.6198C734.008 21.9179 734.224 23.1077 734.657 24.1894C735.113 25.2711 735.738 26.2086 736.532 27.0018C737.349 27.7951 738.298 28.408 739.38 28.8407C740.486 29.2734 741.7 29.4897 743.022 29.4897C744.344 29.4897 745.57 29.2493 746.699 28.7686C747.829 28.2638 748.851 27.5066 749.764 26.497L752.793 29.3815C751.615 30.7517 750.173 31.7973 748.466 32.5184C746.759 33.2396 744.861 33.6001 742.769 33.6001Z" fill="black"/>
<path d="M722.035 33.2395V13.9855H726.542V33.2395H722.035ZM724.306 10.8125C723.465 10.8125 722.768 10.5481 722.215 10.0193C721.686 9.49044 721.422 8.85344 721.422 8.10828C721.422 7.33908 721.686 6.70208 722.215 6.19729C722.768 5.66847 723.465 5.40405 724.306 5.40405C725.148 5.40405 725.833 5.65645 726.362 6.16123C726.914 6.64199 727.191 7.25494 727.191 8.00011C727.191 8.79335 726.926 9.4664 726.398 10.0193C725.869 10.5481 725.172 10.8125 724.306 10.8125Z" fill="black"/>
<path d="M710.182 13.769C711.72 13.769 713.078 14.0695 714.256 14.6704C715.458 15.2714 716.396 16.1968 717.069 17.4468C717.742 18.6727 718.078 20.2592 718.078 22.2062V33.2394H713.571V22.7831C713.571 21.0764 713.199 19.8025 712.453 18.9611C711.708 18.1198 710.639 17.6992 709.244 17.6992C708.259 17.6992 707.381 17.9155 706.612 18.3482C705.867 18.7809 705.278 19.4179 704.846 20.2592C704.437 21.1005 704.233 22.1701 704.233 23.4682V33.2394H699.726V22.7831C699.726 21.0764 699.353 19.8025 698.608 18.9611C697.863 18.1198 696.793 17.6992 695.399 17.6992C694.413 17.6992 693.536 17.9155 692.767 18.3482C692.021 18.7809 691.433 19.4179 691 20.2592C690.591 21.1005 690.387 22.1701 690.387 23.4682V33.2394H685.88V13.9854H690.171V19.1054L689.413 17.591C690.062 16.341 691 15.3916 692.226 14.7425C693.476 14.0935 694.894 13.769 696.48 13.769C698.283 13.769 699.846 14.2137 701.168 15.1031C702.514 15.9925 703.403 17.3386 703.836 19.1414L702.069 18.5285C702.694 17.0862 703.728 15.9324 705.17 15.0671C706.612 14.2017 708.283 13.769 710.182 13.769Z" fill="black"/>
<path d="M671.289 33.4919C669.654 33.4919 668.212 33.1914 666.962 32.5905C665.712 31.9655 664.739 31.028 664.042 29.7781C663.345 28.5041 662.996 26.9056 662.996 24.9826V13.9854H667.503V24.3696C667.503 26.1003 667.888 27.3984 668.657 28.2637C669.45 29.105 670.568 29.5257 672.01 29.5257C673.068 29.5257 673.981 29.3093 674.75 28.8767C675.544 28.444 676.157 27.795 676.589 26.9296C677.046 26.0643 677.274 24.9946 677.274 23.7206V13.9854H681.781V33.2395H677.491V28.0474L678.248 29.6338C677.599 30.8838 676.649 31.8453 675.399 32.5184C674.15 33.1674 672.779 33.4919 671.289 33.4919Z" fill="black"/>
<path d="M643.968 33.2394V7.99998H648.655V29.2732H661.852V33.2394H643.968Z" fill="black"/>
<path d="M631.733 25.9154L636.071 29.2957H634.212H629.874L631.733 25.9154Z" fill="#00ACEB"/>
<path d="M602.1 25.9154L597.762 29.2957H599.621H603.959L602.1 25.9154Z" fill="#00ACEB"/>
<path fill-rule="evenodd" clip-rule="evenodd" d="M615.612 0.12674C614.751 0.457897 601.606 6.19441 601.146 6.43975C599.829 7.14231 598.848 8.42896 598.476 9.94108C598.026 11.7708 598.631 17.0604 599.738 20.9682C602.122 29.3906 607.038 35.7365 613.913 39.267C614.976 39.8127 615.673 40 616.642 40C617.612 40 618.309 39.8127 619.372 39.267C624.579 36.5929 628.614 32.3661 631.373 26.695C633.492 22.3381 634.767 17.1219 634.931 12.1366C634.982 10.6023 634.912 10.0372 634.563 9.152C634.168 8.15235 633.328 7.14911 632.43 6.60505C632.165 6.44436 631.295 6.02824 630.497 5.68028C629.699 5.3324 626.452 3.91969 623.283 2.54097L617.52 0.0342791L616.757 0.00708002C616.149 -0.0144917 615.916 0.00989372 615.612 0.12674Z" fill="url(#paint0_linear_190_14)"/>
<path fill-rule="evenodd" clip-rule="evenodd" d="M601.146 6.43975C599.829 7.14231 598.848 8.42896 598.476 9.94108C598.026 11.7708 598.631 17.0605 599.738 20.9682C602.122 29.3906 607.038 35.7365 613.913 39.267C614.976 39.8127 615.673 40 616.642 40C617.612 40 618.309 39.8127 619.372 39.267C624.579 36.5929 628.614 32.3661 631.373 26.695C633.492 22.3381 634.767 17.1219 634.931 12.1366C634.982 10.6023 634.912 10.0372 634.563 9.152C634.168 8.15235 633.328 7.14911 632.43 6.60505C632.165 6.44436 631.295 6.02824 630.497 5.68028C629.699 5.3324 626.452 3.91969 623.283 2.54097L617.52 0.0342791L616.757 0.00708002C616.149 -0.0144917 615.916 0.00989372 615.612 0.12674C614.751 0.457897 601.606 6.19441 601.146 6.43975ZM615.915 0.915497C615.508 1.07221 612.034 2.57676 608.567 4.08995C606.841 4.84281 605.129 5.59279 603.82 6.16972C603.165 6.45825 602.612 6.70309 602.209 6.8832C602.007 6.97335 601.845 7.04664 601.726 7.10082C601.666 7.12797 601.62 7.14956 601.585 7.16565C601.554 7.1806 601.542 7.18656 601.542 7.18651C601.542 7.1865 601.543 7.18609 601.544 7.18534C600.449 7.7695 599.614 8.85245 599.297 10.143L598.476 9.94108L599.297 10.143C599.21 10.4937 599.162 11.0807 599.173 11.8754C599.183 12.6542 599.248 13.5797 599.363 14.5794C599.592 16.5806 600.012 18.8344 600.551 20.738C602.881 28.9677 607.662 35.1065 614.299 38.5152L614.299 38.5152C615.27 39.0136 615.835 39.1549 616.642 39.1549C617.45 39.1549 618.015 39.0136 618.986 38.5152L618.986 38.5152C624.017 35.9313 627.927 31.8455 630.613 26.3253C632.679 22.0783 633.926 16.979 634.087 12.1087C634.135 10.6276 634.065 10.194 633.777 9.46208C633.448 8.63008 632.729 7.77375 631.993 7.32785L631.992 7.32782C631.783 7.20082 630.964 6.80563 630.159 6.45498C629.361 6.10723 626.115 4.69465 622.946 3.3159L617.33 0.873109L616.727 0.851618C616.727 0.851617 616.727 0.851616 616.727 0.851614C616.43 0.841065 616.269 0.843969 616.158 0.855496C616.068 0.864929 616.006 0.880557 615.915 0.915497Z" fill="url(#paint1_linear_190_14)"/>
<path d="M598.004 29.2957C597.036 29.2957 596.631 28.0588 597.411 27.4858L615.5 14.2056C616.507 13.4658 617.882 13.4786 618.876 14.237L636.59 27.756C637.243 28.2539 636.89 29.2957 636.07 29.2957C635.888 29.2957 635.712 29.2383 635.565 29.1317L618.844 16.9706C617.862 16.2566 616.533 16.2518 615.546 16.9588L598.588 29.1083C598.418 29.2302 598.213 29.2957 598.004 29.2957Z" fill="white"/>
<path d="M613.538 23.6621C613.538 23.3509 613.79 23.0987 614.101 23.0987H616.355C616.666 23.0987 616.918 23.3509 616.918 23.6621V25.9156C616.918 26.2267 616.666 26.479 616.355 26.479H614.101C613.79 26.479 613.538 26.2267 613.538 25.9156V23.6621Z" fill="white"/>
<path d="M613.538 28.1692C613.538 27.8581 613.79 27.6058 614.101 27.6058H616.355C616.666 27.6058 616.918 27.8581 616.918 28.1692V30.4227C616.918 30.7339 616.666 30.9861 616.355 30.9861H614.101C613.79 30.9861 613.538 30.7339 613.538 30.4227V28.1692Z" fill="white"/>
<path d="M617.482 23.6621C617.482 23.3509 617.735 23.0987 618.046 23.0987H620.299C620.61 23.0987 620.863 23.3509 620.863 23.6621V25.9156C620.863 26.2267 620.61 26.479 620.299 26.479H618.046C617.735 26.479 617.482 26.2267 617.482 25.9156V23.6621Z" fill="white"/>
<path d="M617.482 28.1692C617.482 27.8581 617.735 27.6058 618.046 27.6058H620.299C620.61 27.6058 620.863 27.8581 620.863 28.1692V30.4227C620.863 30.7339 620.61 30.9861 620.299 30.9861H618.046C617.735 30.9861 617.482 30.7339 617.482 30.4227V28.1692Z" fill="white"/>
<path d="M4 12.0013H28M4 20.0013H28M4 28.0013H28" stroke="black" stroke-width="1.5" stroke-linecap="round" stroke-linejoin="round"/>
<path fill-rule="evenodd" clip-rule="evenodd" d="M1398.76 10H1394.94L1394.01 23.6954C1393.96 24.5027 1394.07 25.3127 1394.35 26.0751C1394.63 26.8375 1395.06 27.536 1395.63 28.1273C1396.19 28.7185 1396.88 29.1898 1397.64 29.512C1398.4 29.8341 1399.21 30.0003 1400.04 30H1408.96C1409.79 30.0001 1410.6 29.8344 1411.36 29.5129C1412.12 29.1915 1412.8 28.7212 1413.37 28.1313C1413.93 27.5413 1414.37 26.8443 1414.65 26.0833C1414.93 25.3223 1415.04 24.5136 1414.99 23.7072L1414.04 10H1398.76ZM1398.76 11.1806H1396.08L1395.22 23.778C1395.18 24.4235 1395.27 25.0711 1395.49 25.6805C1395.71 26.29 1396.06 26.8484 1396.51 27.3211C1396.96 27.7938 1397.51 28.1707 1398.12 28.4284C1398.73 28.6862 1399.38 28.8192 1400.04 28.8194H1408.96C1409.62 28.8208 1410.28 28.689 1410.89 28.432C1411.49 28.1749 1412.04 27.7983 1412.5 27.3254C1412.95 26.8526 1413.3 26.2936 1413.52 25.6833C1413.74 25.073 1413.84 24.4245 1413.79 23.778L1412.92 11.1806H1410.24V11.9244C1410.24 12.6609 1410.09 13.3901 1409.8 14.0705C1409.51 14.7509 1409.09 15.3692 1408.56 15.8899C1408.03 16.4107 1407.39 16.8238 1406.7 17.1056C1406 17.3874 1405.25 17.5325 1404.5 17.5325C1403.75 17.5325 1403 17.3874 1402.3 17.1056C1401.61 16.8238 1400.98 16.4107 1400.44 15.8899C1399.91 15.3692 1399.49 14.7509 1399.2 14.0705C1398.91 13.3901 1398.76 12.6609 1398.76 11.9244V11.1806ZM1409.03 11.1806H1399.97V11.9244C1399.97 13.0987 1400.45 14.2248 1401.3 15.0551C1402.15 15.8854 1403.3 16.3518 1404.5 16.3518C1405.7 16.3518 1406.85 15.8854 1407.7 15.0551C1408.55 14.2248 1409.03 13.0987 1409.03 11.9244V11.1806Z" fill="black"/>
<defs>
<linearGradient id="paint0_linear_190_14" x1="616.636" y1="0" x2="616.636" y2="40" gradientUnits="userSpaceOnUse">
<stop stop-color="#00A1FE"/>
<stop offset="1" stop-color="#00ACEB"/>
</linearGradient>
<linearGradient id="paint1_linear_190_14" x1="616.636" y1="0" x2="616.636" y2="40" gradientUnits="userSpaceOnUse">
<stop stop-color="#00ACEB"/>
<stop offset="1" stop-color="#00A1FE"/>
</linearGradient>
</defs>
</svg>
