<svg width="98" height="21" viewBox="0 0 98 21" fill="none" xmlns="http://www.w3.org/2000/svg">
<path d="M9 2.24219L11.645 7.60161L17.5595 8.46103L13.2798 12.6328L14.2901 18.5233L9 15.7422L3.70993 18.5233L4.72025 12.6328L0.440492 8.46103L6.35497 7.60161L9 2.24219Z" fill="#FFC107"/>
<path d="M29 0.757812L31.645 6.11724L37.5595 6.97666L33.2798 11.1484L34.2901 17.039L29 14.2578L23.7099 17.039L24.7202 11.1484L20.4405 6.97666L26.355 6.11724L29 0.757812Z" fill="#FFC107"/>
<path d="M49 1.86719L51.645 7.22661L57.5595 8.08603L53.2798 12.2578L54.2901 18.1483L49 15.3672L43.7099 18.1483L44.7202 12.2578L40.4405 8.08603L46.355 7.22661L49 1.86719Z" fill="#FFC107"/>
<path d="M69 1.77344L71.645 7.13286L77.5595 7.99228L73.2798 12.164L74.2901 18.0546L69 15.2734L63.7099 18.0546L64.7202 12.164L60.4405 7.99228L66.355 7.13286L69 1.77344Z" fill="#FFC107"/>
<path d="M89 1.80469L91.645 7.16411L97.5595 8.02353L93.2798 12.1953L94.2901 18.0858L89 15.3047L83.7099 18.0858L84.7202 12.1953L80.4405 8.02353L86.355 7.16411L89 1.80469Z" fill="#FFC107"/>
</svg>
