<svg width="32" height="688" viewBox="0 0 32 688" fill="none" xmlns="http://www.w3.org/2000/svg">
<path d="M16 29C23.1795 29 29 23.1795 29 16C29 8.82045 23.1795 3 16 3C8.82045 3 3 8.82045 3 16C3 23.1795 8.82045 29 16 29ZM12.2395 10.5672L16 14.3289L19.7605 10.5684L21.4316 12.2395L17.6711 16L21.4316 19.7605L19.7594 21.4316L16 17.6711L12.2395 21.4316L10.5672 19.7605L14.3289 16L10.5672 12.2395L12.2395 10.5672Z" fill="#EB0000"/>
<path d="M16 111C23.1795 111 29 105.18 29 98C29 90.8205 23.1795 85 16 85C8.82045 85 3 90.8205 3 98C3 105.18 8.82045 111 16 111ZM12.2395 92.5672L16 96.3289L19.7605 92.5684L21.4316 94.2395L17.6711 98L21.4316 101.761L19.7594 103.432L16 99.6711L12.2395 103.432L10.5672 101.761L14.3289 98L10.5672 94.2395L12.2395 92.5672Z" fill="#EB0000"/>
<path d="M16 275C23.1795 275 29 269.18 29 262C29 254.82 23.1795 249 16 249C8.82045 249 3 254.82 3 262C3 269.18 8.82045 275 16 275ZM12.2395 256.567L16 260.329L19.7605 256.568L21.4316 258.239L17.6711 262L21.4316 265.761L19.7594 267.432L16 263.671L12.2395 267.432L10.5672 265.761L14.3289 262L10.5672 258.239L12.2395 256.567Z" fill="#EB0000"/>
<path d="M16 439C23.1795 439 29 433.18 29 426C29 418.82 23.1795 413 16 413C8.82045 413 3 418.82 3 426C3 433.18 8.82045 439 16 439ZM12.2395 420.567L16 424.329L19.7605 420.568L21.4316 422.239L17.6711 426L21.4316 429.761L19.7594 431.432L16 427.671L12.2395 431.432L10.5672 429.761L14.3289 426L10.5672 422.239L12.2395 420.567Z" fill="#EB0000"/>
<path d="M16 603C23.1795 603 29 597.18 29 590C29 582.82 23.1795 577 16 577C8.82045 577 3 582.82 3 590C3 597.18 8.82045 603 16 603ZM12.2395 584.567L16 588.329L19.7605 584.568L21.4316 586.239L17.6711 590L21.4316 593.761L19.7594 595.432L16 591.671L12.2395 595.432L10.5672 593.761L14.3289 590L10.5672 586.239L12.2395 584.567Z" fill="#EB0000"/>
<path d="M16 685C23.1795 685 29 679.18 29 672C29 664.82 23.1795 659 16 659C8.82045 659 3 664.82 3 672C3 679.18 8.82045 685 16 685ZM12.2395 666.567L16 670.329L19.7605 666.568L21.4316 668.239L17.6711 672L21.4316 675.761L19.7594 677.432L16 673.671L12.2395 677.432L10.5672 675.761L14.3289 672L10.5672 668.239L12.2395 666.567Z" fill="#EB0000"/>
<path d="M16 193C23.1795 193 29 187.18 29 180C29 172.82 23.1795 167 16 167C8.82045 167 3 172.82 3 180C3 187.18 8.82045 193 16 193ZM12.2395 174.567L16 178.329L19.7605 174.568L21.4316 176.239L17.6711 180L21.4316 183.761L19.7594 185.432L16 181.671L12.2395 185.432L10.5672 183.761L14.3289 180L10.5672 176.239L12.2395 174.567Z" fill="#EB0000"/>
<path d="M16 357C23.1795 357 29 351.18 29 344C29 336.82 23.1795 331 16 331C8.82045 331 3 336.82 3 344C3 351.18 8.82045 357 16 357ZM12.2395 338.567L16 342.329L19.7605 338.568L21.4316 340.239L17.6711 344L21.4316 347.761L19.7594 349.432L16 345.671L12.2395 349.432L10.5672 347.761L14.3289 344L10.5672 340.239L12.2395 338.567Z" fill="#EB0000"/>
<path d="M16 521C23.1795 521 29 515.18 29 508C29 500.82 23.1795 495 16 495C8.82045 495 3 500.82 3 508C3 515.18 8.82045 521 16 521ZM12.2395 502.567L16 506.329L19.7605 502.568L21.4316 504.239L17.6711 508L21.4316 511.761L19.7594 513.432L16 509.671L12.2395 513.432L10.5672 511.761L14.3289 508L10.5672 504.239L12.2395 502.567Z" fill="#EB0000"/>
</svg>
