<svg width="22" height="22" viewBox="0 0 22 22" fill="none" xmlns="http://www.w3.org/2000/svg">
<path fill-rule="evenodd" clip-rule="evenodd" d="M22 11C22 17.075 17.075 22 11 22C4.925 22 1.69207e-06 17.075 1.42652e-06 11C1.16098e-06 4.925 4.925 -1.16098e-06 11 -1.42652e-06C17.075 -1.69207e-06 22 4.925 22 11ZM11 2C12.1819 2 13.3522 2.23279 14.4442 2.68508C15.5361 3.13737 16.5282 3.80031 17.364 4.63604C18.1997 5.47177 18.8626 6.46392 19.3149 7.55585C19.7672 8.64778 20 9.8181 20 11C20 12.1819 19.7672 13.3522 19.3149 14.4442C18.8626 15.5361 18.1997 16.5282 17.364 17.364C16.5282 18.1997 15.5361 18.8626 14.4442 19.3149C13.3522 19.7672 12.1819 20 11 20C8.61305 20 6.32387 19.0518 4.63604 17.364C2.94821 15.6761 2 13.3869 2 11C2 8.61305 2.94821 6.32387 4.63604 4.63604C6.32387 2.94821 8.61305 2 11 2Z" fill="#1890D5"/>
<path d="M11 2C12.1819 2 13.3522 2.23279 14.4442 2.68508C15.5361 3.13737 16.5282 3.80031 17.364 4.63604C18.1997 5.47177 18.8626 6.46392 19.3149 7.55585C19.7672 8.64778 20 9.8181 20 11C20 12.1819 19.7672 13.3522 19.3149 14.4442C18.8626 15.5361 18.1997 16.5282 17.364 17.364C16.5282 18.1997 15.5361 18.8626 14.4442 19.3149C13.3522 19.7672 12.1819 20 11 20C8.61305 20 6.32387 19.0518 4.63604 17.364C2.94821 15.6761 2 13.3869 2 11C2 8.61305 2.94821 6.32387 4.63604 4.63604C6.32387 2.94821 8.61305 2 11 2Z" fill="#1890D5"/>
<path d="M15.2432 11.9141L11.0002 7.67212L6.75716 11.9141L8.17116 13.3281L11.0002 10.5001L13.8282 13.3281L15.2432 11.9141Z" fill="white"/>
</svg>
