<svg width="20" height="24" viewBox="0 0 20 24" fill="none" xmlns="http://www.w3.org/2000/svg">
<g clip-path="url(#clip0_128_2482)">
<path d="M10.052 2.19234L10.368 1.45319C10.2681 1.41046 10.1606 1.38843 10.052 1.38843C9.94336 1.38843 9.83585 1.41046 9.73598 1.45319L10.052 2.19234ZM10.052 21.4744L9.6535 22.1717C9.77487 22.2411 9.91222 22.2775 10.052 22.2775C10.1918 22.2775 10.3291 22.2411 10.4505 22.1717L10.052 21.4744ZM9.73491 1.45427L2.88765 4.38835L3.51752 5.86663L10.3669 2.93148L9.73491 1.45427ZM1.75 6.11195V13.4605H3.35683V6.11195H1.75ZM5.39323 19.738L9.6535 22.1717L10.4505 20.7771L6.19023 18.3421L5.39323 19.738ZM10.4505 22.1717L14.7107 19.738L13.9137 18.3421L9.6535 20.7771L10.4505 22.1717ZM18.3539 13.4595V6.11302H16.7472V13.4616L18.3539 13.4595ZM17.2185 4.38942L10.368 1.45319L9.73598 2.9304L16.5854 5.86663L17.2185 4.38942ZM18.3539 6.11302C18.3539 5.36316 17.9073 4.68508 17.2185 4.38942L16.5854 5.86663C16.6335 5.88739 16.6745 5.92178 16.7032 5.96557C16.732 6.00937 16.7472 6.06063 16.7472 6.11302H18.3539ZM14.7107 19.738C15.8174 19.1055 16.7373 18.1918 17.377 17.0894C18.0168 15.9871 18.3538 14.7341 18.3539 13.4595L16.7472 13.4616C16.747 14.4528 16.4848 15.4253 15.9872 16.2826C15.4896 17.1398 14.7743 17.8503 13.9137 18.3421L14.7107 19.738ZM1.75 13.4605C1.75011 14.7351 2.08714 15.9871 2.72695 17.0894C3.36674 18.1918 4.28658 19.1055 5.39323 19.738L6.19023 18.3421C5.32951 17.8502 4.6141 17.1395 4.11653 16.2821C3.61894 15.4246 3.35686 14.4519 3.35683 13.4605H1.75ZM2.8855 4.38835C2.5485 4.53293 2.2613 4.77318 2.05947 5.07935C1.85765 5.38552 1.75005 5.74524 1.75 6.11195H3.35683C3.35683 6.00483 3.42111 5.90734 3.51967 5.8645L2.8855 4.38835Z" fill="#19A8EC"/>
<path d="M10.368 1.45319L10.052 2.19234L9.73598 1.45319C9.83585 1.41046 9.94336 1.38843 10.052 1.38843C10.1606 1.38843 10.2681 1.41046 10.368 1.45319ZM10.368 1.45319L17.2185 4.38942M10.368 1.45319L9.73598 2.9304L16.5854 5.86663M17.2185 4.38942L16.5854 5.86663M17.2185 4.38942C17.9073 4.68508 18.3539 5.36316 18.3539 6.11302M16.5854 5.86663L16.9014 5.12749M16.5854 5.86663C16.6335 5.88739 16.6745 5.92178 16.7032 5.96557C16.732 6.00937 16.7472 6.06063 16.7472 6.11302M9.6535 22.1717L10.052 21.4744L10.4505 22.1717M9.6535 22.1717C9.77487 22.2411 9.91222 22.2775 10.052 22.2775C10.1918 22.2775 10.3291 22.2411 10.4505 22.1717M9.6535 22.1717L5.39323 19.738M9.6535 22.1717L10.4505 20.7771L6.19023 18.3421M10.4505 22.1717L14.7107 19.738M10.4505 22.1717L9.6535 20.7771L13.9137 18.3421M5.39323 19.738L5.7928 19.0395M5.39323 19.738L6.19023 18.3421M5.39323 19.738C4.28658 19.1055 3.36674 18.1918 2.72695 17.0894C2.08714 15.9871 1.75011 14.7351 1.75 13.4605M6.19023 18.3421C5.32951 17.8502 4.6141 17.1395 4.11653 16.2821C3.61894 15.4246 3.35686 14.4519 3.35683 13.4605M14.7107 19.738L13.9137 18.3421M14.7107 19.738C15.8174 19.1055 16.7373 18.1918 17.377 17.0894C18.0168 15.9871 18.3538 14.7341 18.3539 13.4595M13.9137 18.3421C14.7743 17.8503 15.4896 17.1398 15.9872 16.2826C16.4848 15.4253 16.747 14.4528 16.7472 13.4616M16.7472 6.11302H18.3539M16.7472 6.11302V13.4616M1.75 13.4605V6.11195M1.75 13.4605H3.35683M1.75 6.11195H3.35683M1.75 6.11195C1.75005 5.74524 1.85765 5.38552 2.05947 5.07935C2.2613 4.77318 2.5485 4.53293 2.8855 4.38835L3.51967 5.8645C3.42111 5.90734 3.35683 6.00483 3.35683 6.11195M3.35683 6.11195V13.4605M18.3539 13.4595V6.11302M18.3539 13.4595L16.7472 13.4616M9.73491 1.45427L2.88765 4.38835L3.51752 5.86663L10.3669 2.93148L9.73491 1.45427Z" stroke="#19A8EC" stroke-width="1.50571" stroke-linecap="round" stroke-linejoin="bevel"/>
<path d="M2.52734 6.11706L9.30303 2.35278L17.5844 5.36421L16.8316 17.4099L10.0559 21.1742L2.52734 16.657V6.11706Z" fill="#19A8EC"/>
<path d="M13.2584 9.6875L8.97351 13.9723L6.83105 11.8299" stroke="white" stroke-width="2.25856" stroke-linecap="round" stroke-linejoin="round"/>
</g>
<defs>
<clipPath id="clip0_128_2482">
<rect width="19.4286" height="24" fill="white" transform="translate(0.286133)"/>
</clipPath>
</defs>
</svg>
