<svg width="390" height="64" viewBox="0 0 390 64" fill="none" xmlns="http://www.w3.org/2000/svg">
<path d="M0 0H390V64H0V0Z" fill="white"/>
<path d="M268.374 28.1482C269.45 28.1482 270.409 28.3582 271.25 28.7782C272.108 29.1983 272.78 29.8451 273.268 30.7188C273.756 31.5756 273.999 32.6845 273.999 34.0454V41.7573H270.846V34.4487C270.846 33.2558 270.56 32.3653 269.988 31.7773C269.434 31.1892 268.652 30.8952 267.642 30.8952C266.902 30.8952 266.247 31.0464 265.675 31.3488C265.103 31.6512 264.657 32.1049 264.338 32.7097C264.035 33.2978 263.884 34.0454 263.884 34.9527V41.7573H260.73V28.2994H263.732V31.9285L263.203 30.8196C263.674 29.9627 264.355 29.3075 265.246 28.8538C266.154 28.3834 267.197 28.1482 268.374 28.1482Z" fill="black"/>
<path d="M254.969 41.7573V39.0354L254.792 38.4558V33.6926C254.792 32.7685 254.515 32.0545 253.96 31.5504C253.405 31.0296 252.564 30.7692 251.437 30.7692C250.681 30.7692 249.932 30.8868 249.192 31.122C248.469 31.3572 247.855 31.6848 247.351 32.1049L246.115 29.8115C246.838 29.2571 247.695 28.8454 248.688 28.5766C249.697 28.291 250.739 28.1482 251.816 28.1482C253.767 28.1482 255.272 28.6186 256.331 29.5595C257.408 30.4836 257.946 31.9201 257.946 33.869V41.7573H254.969ZM250.731 41.9337C249.722 41.9337 248.839 41.7657 248.082 41.4296C247.325 41.0768 246.737 40.598 246.316 39.9931C245.913 39.3715 245.711 38.6742 245.711 37.9013C245.711 37.1453 245.888 36.4648 246.241 35.86C246.611 35.2551 247.208 34.7763 248.032 34.4235C248.856 34.0706 249.949 33.8942 251.311 33.8942H255.221V35.986H251.538C250.462 35.986 249.739 36.1624 249.369 36.5152C248.999 36.8513 248.814 37.2713 248.814 37.7753C248.814 38.3466 249.041 38.8002 249.495 39.1362C249.949 39.4723 250.58 39.6403 251.387 39.6403C252.16 39.6403 252.85 39.4639 253.455 39.111C254.078 38.7582 254.523 38.2374 254.792 37.5485L255.322 39.4387C255.019 40.2283 254.473 40.8416 253.682 41.2784C252.909 41.7153 251.925 41.9337 250.731 41.9337Z" fill="black"/>
<path d="M238.939 41.9337C237.442 41.9337 236.13 41.6396 235.004 41.0516C233.894 40.4468 233.027 39.6235 232.405 38.5818C231.8 37.5401 231.497 36.3556 231.497 35.0283C231.497 33.6842 231.791 32.4997 232.38 31.4748C232.985 30.4331 233.809 29.6183 234.852 29.0302C235.912 28.4422 237.114 28.1482 238.46 28.1482C239.771 28.1482 240.94 28.4338 241.966 29.005C242.992 29.5763 243.799 30.3827 244.388 31.4244C244.976 32.4661 245.271 33.6926 245.271 35.1039C245.271 35.2383 245.262 35.3895 245.245 35.5576C245.245 35.7256 245.237 35.8852 245.22 36.0364H233.994V33.9446H243.555L242.319 34.5999C242.336 33.827 242.176 33.1466 241.84 32.5585C241.503 31.9705 241.041 31.5084 240.452 31.1724C239.881 30.8364 239.216 30.6684 238.46 30.6684C237.686 30.6684 237.005 30.8364 236.416 31.1724C235.844 31.5084 235.39 31.9789 235.054 32.5837C234.734 33.1718 234.575 33.869 234.575 34.6755V35.1795C234.575 35.986 234.76 36.7001 235.13 37.3217C235.5 37.9434 236.021 38.4222 236.694 38.7582C237.366 39.0942 238.14 39.2623 239.014 39.2623C239.771 39.2623 240.452 39.1446 241.058 38.9094C241.663 38.6742 242.201 38.3046 242.672 37.8005L244.362 39.7411C243.757 40.4468 242.992 40.9928 242.067 41.3792C241.159 41.7489 240.116 41.9337 238.939 41.9337Z" fill="black"/>
<path d="M226.576 41.7571V23.0572H229.729V41.7571H226.576Z" fill="black"/>
<path d="M217.985 42.0091C216.64 42.0091 215.387 41.7907 214.227 41.3538C213.083 40.9002 212.082 40.2701 211.225 39.4637C210.384 38.6404 209.728 37.6743 209.257 36.5654C208.786 35.4565 208.551 34.2469 208.551 32.9363C208.551 31.6258 208.786 30.4161 209.257 29.3073C209.728 28.1984 210.392 27.2407 211.25 26.4342C212.108 25.611 213.108 24.9809 214.252 24.5441C215.395 24.0904 216.648 23.8636 218.011 23.8636C219.457 23.8636 220.777 24.1156 221.971 24.6197C223.165 25.1069 224.174 25.8378 224.998 26.8123L222.879 28.8032C222.24 28.1144 221.525 27.6019 220.735 27.2659C219.945 26.9131 219.087 26.7367 218.162 26.7367C217.237 26.7367 216.388 26.8879 215.614 27.1903C214.857 27.4927 214.193 27.9211 213.621 28.4756C213.066 29.03 212.629 29.6853 212.309 30.4413C212.007 31.1974 211.855 32.0291 211.855 32.9363C211.855 33.8436 212.007 34.6753 212.309 35.4313C212.629 36.1874 213.066 36.8427 213.621 37.3971C214.193 37.9515 214.857 38.38 215.614 38.6824C216.388 38.9848 217.237 39.136 218.162 39.136C219.087 39.136 219.945 38.968 220.735 38.632C221.525 38.2792 222.24 37.7499 222.879 37.0443L224.998 39.0604C224.174 40.0181 223.165 40.749 221.971 41.253C220.777 41.7571 219.449 42.0091 217.985 42.0091Z" fill="black"/>
<path d="M203.48 41.7572V28.2993H206.633V41.7572H203.48ZM205.069 26.0815C204.48 26.0815 203.993 25.8967 203.606 25.5271C203.236 25.1575 203.051 24.7122 203.051 24.1914C203.051 23.6538 203.236 23.2085 203.606 22.8557C203.993 22.4861 204.48 22.3012 205.069 22.3012C205.657 22.3012 206.137 22.4777 206.507 22.8305C206.894 23.1665 207.087 23.5949 207.087 24.1158C207.087 24.6702 206.902 25.1407 206.532 25.5271C206.162 25.8967 205.674 26.0815 205.069 26.0815Z" fill="black"/>
<path d="M195.186 28.1482C196.262 28.1482 197.213 28.3582 198.037 28.7782C198.878 29.1983 199.533 29.8451 200.004 30.7188C200.475 31.5756 200.711 32.6845 200.711 34.0454V41.7573H197.557V34.4487C197.557 33.2558 197.297 32.3653 196.775 31.7773C196.254 31.1892 195.506 30.8952 194.53 30.8952C193.841 30.8952 193.227 31.0464 192.689 31.3488C192.167 31.6512 191.755 32.0965 191.453 32.6845C191.167 33.2726 191.024 34.0202 191.024 34.9275V41.7573H187.87V34.4487C187.87 33.2558 187.61 32.3653 187.088 31.7773C186.567 31.1892 185.819 30.8952 184.843 30.8952C184.154 30.8952 183.54 31.0464 183.002 31.3488C182.48 31.6512 182.068 32.0965 181.766 32.6845C181.48 33.2726 181.337 34.0202 181.337 34.9275V41.7573H178.184V28.2994H181.186V31.8781L180.656 30.8196C181.11 29.9459 181.766 29.2823 182.623 28.8286C183.498 28.375 184.49 28.1482 185.6 28.1482C186.861 28.1482 187.955 28.459 188.88 29.0806C189.821 29.7023 190.444 30.6432 190.746 31.9033L189.51 31.4748C189.947 30.4668 190.671 29.6603 191.68 29.0554C192.689 28.4506 193.857 28.1482 195.186 28.1482Z" fill="black"/>
<path d="M167.975 41.9336C166.831 41.9336 165.822 41.7236 164.948 41.3035C164.073 40.8667 163.392 40.2114 162.904 39.3378C162.417 38.4473 162.173 37.33 162.173 35.9859V28.2993H165.326V35.5575C165.326 36.7672 165.595 37.6744 166.133 38.2793C166.688 38.8673 167.47 39.1614 168.479 39.1614C169.219 39.1614 169.858 39.0101 170.397 38.7077C170.952 38.4053 171.38 37.9517 171.683 37.3468C172.003 36.742 172.162 35.9943 172.162 35.1038V28.2993H175.316V41.7572H172.314V38.1281L172.844 39.237C172.389 40.1106 171.725 40.7827 170.851 41.2531C169.976 41.7068 169.018 41.9336 167.975 41.9336Z" fill="black"/>
<path d="M148.86 41.7571V24.1157H152.14V38.9848H161.373V41.7571H148.86Z" fill="black"/>
<path d="M140.302 36.0899L143.337 38.4526H142.036H139.001L140.302 36.0899Z" fill="#00ACEB"/>
<path d="M119.568 36.0899L116.533 38.4526H117.834H120.869L119.568 36.0899Z" fill="#00ACEB"/>
<path fill-rule="evenodd" clip-rule="evenodd" d="M129.022 18.0887C128.419 18.3205 119.222 22.3361 118.901 22.5078C117.979 22.9996 117.293 23.9003 117.033 24.9587C116.718 26.2396 117.141 29.9423 117.915 32.6777C119.584 38.5734 123.023 43.0155 127.833 45.4869C128.576 45.8689 129.064 46 129.742 46C130.42 46 130.909 45.8689 131.652 45.4869C135.295 43.6151 138.118 40.6563 140.048 36.6865C141.531 33.6367 142.423 29.9853 142.538 26.4956C142.573 25.4216 142.524 25.026 142.28 24.4064C142.004 23.7066 141.417 23.0044 140.788 22.6235C140.603 22.511 139.994 22.2197 139.435 21.9762C138.877 21.7327 136.606 20.7438 134.388 19.7787L130.357 18.024L129.823 18.0049C129.397 17.9898 129.234 18.0069 129.022 18.0887Z" fill="url(#paint0_linear_128_2387)"/>
<path fill-rule="evenodd" clip-rule="evenodd" d="M118.901 22.5078C117.979 22.9996 117.293 23.9003 117.033 24.9587C116.718 26.2396 117.141 29.9423 117.915 32.6777C119.584 38.5734 123.023 43.0155 127.833 45.4869C128.576 45.8689 129.064 46 129.742 46C130.42 46 130.909 45.8689 131.652 45.4869C135.295 43.6151 138.118 40.6563 140.048 36.6865C141.531 33.6367 142.423 29.9853 142.538 26.4956C142.573 25.4216 142.524 25.026 142.28 24.4064C142.004 23.7066 141.417 23.0044 140.788 22.6235C140.603 22.511 139.994 22.2197 139.435 21.9762C138.877 21.7327 136.606 20.7438 134.388 19.7787L130.357 18.024L129.823 18.0049C129.397 17.9898 129.234 18.0069 129.022 18.0887C128.419 18.3205 119.222 22.3361 118.901 22.5078ZM129.234 18.6408C128.949 18.7505 126.518 19.8037 124.092 20.8629C122.885 21.3899 121.687 21.9149 120.771 22.3188C120.313 22.5208 119.926 22.6921 119.644 22.8182C119.503 22.8813 119.389 22.9326 119.306 22.9706C119.265 22.9896 119.232 23.0047 119.208 23.0159C119.186 23.0264 119.178 23.0306 119.177 23.0305C119.177 23.0305 119.178 23.0302 119.179 23.0297C118.413 23.4386 117.829 24.1967 117.607 25.1001L117.033 24.9587L117.607 25.1001C117.546 25.3456 117.513 25.7565 117.52 26.3127C117.527 26.8579 117.573 27.5058 117.653 28.2055C117.813 29.6064 118.107 31.184 118.484 32.5166C120.114 38.2774 123.459 42.5746 128.103 44.9607L128.103 44.9607C128.782 45.3095 129.178 45.4085 129.742 45.4085C130.307 45.4085 130.703 45.3095 131.382 44.9607L131.382 44.9607C134.902 43.152 137.638 40.2919 139.516 36.4277C140.962 33.4548 141.835 29.8853 141.947 26.4761C141.981 25.4393 141.932 25.1358 141.73 24.6234C141.5 24.041 140.997 23.4416 140.482 23.1295L140.482 23.1295C140.335 23.0406 139.762 22.7639 139.199 22.5185C138.641 22.275 136.37 21.2862 134.152 20.3211L130.223 18.6112L129.802 18.5961C129.802 18.5961 129.802 18.5961 129.801 18.5961C129.594 18.5887 129.481 18.5908 129.404 18.5988C129.341 18.6054 129.297 18.6164 129.234 18.6408Z" fill="url(#paint1_linear_128_2387)"/>
<path d="M116.702 38.4526C116.025 38.4526 115.741 37.5881 116.288 37.1875L128.943 27.9052C129.648 27.3881 130.61 27.397 131.305 27.9271L143.699 37.3764C144.155 37.7245 143.909 38.4526 143.335 38.4526C143.208 38.4526 143.084 38.4125 142.982 38.338L131.283 29.8378C130.596 29.3387 129.666 29.3354 128.976 29.8296L117.111 38.3216C116.992 38.4068 116.849 38.4526 116.702 38.4526Z" fill="white"/>
<path d="M127.569 34.5151C127.569 34.2976 127.746 34.1213 127.963 34.1213H129.54C129.758 34.1213 129.934 34.2976 129.934 34.5151V36.0902C129.934 36.3077 129.758 36.484 129.54 36.484H127.963C127.746 36.484 127.569 36.3077 127.569 36.0902V34.5151Z" fill="white"/>
<path d="M127.569 37.6653C127.569 37.4478 127.746 37.2715 127.963 37.2715H129.54C129.758 37.2715 129.934 37.4478 129.934 37.6653V39.2404C129.934 39.4579 129.758 39.6342 129.54 39.6342H127.963C127.746 39.6342 127.569 39.4579 127.569 39.2404V37.6653Z" fill="white"/>
<path d="M130.329 34.5151C130.329 34.2976 130.506 34.1213 130.723 34.1213H132.3C132.518 34.1213 132.694 34.2976 132.694 34.5151V36.0902C132.694 36.3077 132.518 36.484 132.3 36.484H130.723C130.506 36.484 130.329 36.3077 130.329 36.0902V34.5151Z" fill="white"/>
<path d="M130.329 37.6653C130.329 37.4479 130.506 37.2716 130.723 37.2716H132.3C132.518 37.2716 132.694 37.4479 132.694 37.6653V39.2405C132.694 39.458 132.518 39.6343 132.3 39.6343H130.723C130.506 39.6343 130.329 39.458 130.329 39.2405V37.6653Z" fill="white"/>
<path d="M16 26H37M16 32.5097H37M16 39.0193H37" stroke="black" stroke-width="1.5" stroke-linecap="round" stroke-linejoin="round"/>
<path fill-rule="evenodd" clip-rule="evenodd" d="M356.215 21H352.034L351.015 36.0649C350.954 36.953 351.079 37.844 351.383 38.6826C351.686 39.5212 352.163 40.2896 352.782 40.94C353.401 41.5903 354.15 42.1088 354.982 42.4632C355.814 42.8175 356.711 43.0003 357.618 43H367.383C368.289 43.0001 369.185 42.8178 370.016 42.4642C370.847 42.1106 371.595 41.5933 372.214 40.9444C372.833 40.2955 373.309 39.5287 373.614 38.6916C373.919 37.8545 374.045 36.9649 373.986 36.0779L372.953 21H356.215ZM356.215 22.2987H353.278L352.338 36.1558C352.29 36.8658 352.39 37.5781 352.633 38.2486C352.876 38.919 353.257 39.5332 353.752 40.0532C354.247 40.5732 354.846 40.9877 355.511 41.2712C356.176 41.5547 356.893 41.7011 357.618 41.7013H367.383C368.109 41.7029 368.828 41.5578 369.494 41.2751C370.161 40.9924 370.761 40.5781 371.258 40.0579C371.754 39.5378 372.136 38.9229 372.38 38.2516C372.624 37.5803 372.725 36.8669 372.676 36.1558L371.723 22.2987H368.786V23.1169C368.786 23.927 368.623 24.7291 368.307 25.4776C367.991 26.226 367.528 26.906 366.945 27.4789C366.361 28.0517 365.668 28.5061 364.906 28.8161C364.143 29.1261 363.326 29.2857 362.5 29.2857C361.675 29.2857 360.858 29.1261 360.095 28.8161C359.333 28.5061 358.64 28.0517 358.056 27.4789C357.473 26.906 357.01 26.226 356.694 25.4776C356.378 24.7291 356.215 23.927 356.215 23.1169V22.2987ZM367.462 22.2987H357.539V23.1169C357.539 24.4085 358.061 25.6472 358.992 26.5606C359.922 27.4739 361.184 27.987 362.5 27.987C363.816 27.987 365.078 27.4739 366.009 26.5606C366.94 25.6472 367.462 24.4085 367.462 23.1169V22.2987Z" fill="black"/>
<defs>
<linearGradient id="paint0_linear_128_2387" x1="129.738" y1="18" x2="129.738" y2="46" gradientUnits="userSpaceOnUse">
<stop stop-color="#00A1FE"/>
<stop offset="1" stop-color="#00ACEB"/>
</linearGradient>
<linearGradient id="paint1_linear_128_2387" x1="129.738" y1="18" x2="129.738" y2="46" gradientUnits="userSpaceOnUse">
<stop stop-color="#00ACEB"/>
<stop offset="1" stop-color="#00A1FE"/>
</linearGradient>
</defs>
</svg>
