<svg width="39" height="25" viewBox="0 0 39 25" fill="none" xmlns="http://www.w3.org/2000/svg">
<path opacity="0.07" d="M35.0498 0.160156H3.0498C1.3498 0.160156 0.0498047 1.46016 0.0498047 3.16016V21.1602C0.0498047 22.8602 1.4498 24.1602 3.0498 24.1602H35.0498C36.7498 24.1602 38.0498 22.8602 38.0498 21.1602V3.16016C38.0498 1.46016 36.6498 0.160156 35.0498 0.160156Z" fill="black"/>
<path d="M35.0498 1.16016C36.1498 1.16016 37.0498 2.06016 37.0498 3.16016V21.1602C37.0498 22.2602 36.1498 23.1602 35.0498 23.1602H3.0498C1.9498 23.1602 1.0498 22.2602 1.0498 21.1602V3.16016C1.0498 2.06016 1.9498 1.16016 3.0498 1.16016H35.0498Z" fill="white"/>
<path d="M23.9498 8.46016C24.1498 7.46016 23.9498 6.76016 23.3498 6.16016C22.7498 5.46016 21.6498 5.16016 20.2498 5.16016H16.1498C15.8498 5.16016 15.6498 5.36016 15.5498 5.66016L14.0498 15.7602C14.0498 15.9602 14.1498 16.1602 14.3498 16.1602H17.0498L17.4498 12.7602L19.2498 10.5602L23.9498 8.46016Z" fill="#003087"/>
<path d="M23.9504 8.46094L23.7504 8.66094C23.2504 11.4609 21.5504 12.4609 19.1504 12.4609H18.0504C17.7504 12.4609 17.5504 12.6609 17.4504 12.9609L16.8504 16.8609L16.6504 17.8609C16.6504 18.0609 16.7504 18.2609 16.9504 18.2609H19.0504C19.3504 18.2609 19.5504 18.0609 19.5504 17.8609V17.7609L19.9504 15.3609V15.2609C19.9504 15.0609 20.2504 14.8609 20.4504 14.8609H20.7504C22.8504 14.8609 24.4504 14.0609 24.8504 11.6609C25.0504 10.6609 24.9504 9.86094 24.4504 9.26094C24.3504 8.76094 24.1504 8.56094 23.9504 8.46094Z" fill="#3086C8"/>
<path d="M23.3492 8.26094C23.2492 8.16094 23.1492 8.16094 23.0492 8.16094C22.9492 8.16094 22.8492 8.16094 22.7492 8.06094C22.4492 7.96094 22.0492 7.96094 21.6492 7.96094H18.6492C18.5492 7.96094 18.4492 7.96094 18.4492 8.06094C18.2492 8.16094 18.1492 8.26094 18.1492 8.46094L17.4492 12.8609V12.9609C17.4492 12.6609 17.7492 12.4609 18.0492 12.4609H19.3492C21.8492 12.4609 23.4492 11.4609 23.9492 8.66094V8.46094C23.8492 8.36094 23.6492 8.26094 23.4492 8.26094H23.3492Z" fill="#012169"/>
</svg>
