<svg width="39" height="25" viewBox="0 0 39 25" fill="none" xmlns="http://www.w3.org/2000/svg">
<path opacity="0.07" d="M35.0596 0.160156H3.05957C1.35957 0.160156 0.0595703 1.46016 0.0595703 3.16016V21.1602C0.0595703 22.8602 1.45957 24.1602 3.05957 24.1602H35.0596C36.7596 24.1602 38.0596 22.8602 38.0596 21.1602V3.16016C38.0596 1.46016 36.6596 0.160156 35.0596 0.160156Z" fill="black"/>
<path d="M35.0596 1.16016C36.1596 1.16016 37.0596 2.06016 37.0596 3.16016V21.1602C37.0596 22.2602 36.1596 23.1602 35.0596 23.1602H3.05957C1.95957 23.1602 1.05957 22.2602 1.05957 21.1602V3.16016C1.05957 2.06016 1.95957 1.16016 3.05957 1.16016H35.0596Z" fill="white"/>
<path d="M3.62957 7.31922H2.05957V12.8192H3.62957C4.45957 12.8192 5.05957 12.6192 5.58957 12.1892C6.21957 11.6692 6.58957 10.8892 6.58957 10.0792C6.57957 8.44922 5.36957 7.31922 3.62957 7.31922ZM4.88957 11.4592C4.54957 11.7592 4.11957 11.8992 3.41957 11.8992H3.12957V8.25922H3.41957C4.10957 8.25922 4.52957 8.37922 4.88957 8.69922C5.25957 9.02922 5.47957 9.53922 5.47957 10.0692C5.47957 10.5992 5.25957 11.1292 4.88957 11.4592ZM7.07957 7.31922H8.14957V12.8192H7.07957V7.31922ZM10.7696 9.42922C10.1296 9.18922 9.93957 9.02922 9.93957 8.73922C9.93957 8.38922 10.2796 8.12922 10.7396 8.12922C11.0596 8.12922 11.3296 8.25922 11.5996 8.57922L12.1596 7.84922C11.6996 7.44922 11.1496 7.23922 10.5396 7.23922C9.56957 7.23922 8.81957 7.91922 8.81957 8.81922C8.81957 9.57922 9.16957 9.96922 10.1696 10.3292C10.5896 10.4792 10.7996 10.5792 10.9096 10.6392C11.1196 10.7792 11.2296 10.9792 11.2296 11.2092C11.2296 11.6592 10.8796 11.9892 10.3996 11.9892C9.88957 11.9892 9.47957 11.7292 9.22957 11.2592L8.53957 11.9292C9.02957 12.6592 9.62957 12.9792 10.4396 12.9792C11.5496 12.9792 12.3396 12.2392 12.3396 11.1692C12.3596 10.2792 11.9896 9.87922 10.7696 9.42922ZM12.6896 10.0792C12.6896 11.6992 13.9596 12.9492 15.5896 12.9492C16.0496 12.9492 16.4496 12.8592 16.9296 12.6292V11.3692C16.4996 11.7992 16.1196 11.9692 15.6396 11.9692C14.5596 11.9692 13.7896 11.1892 13.7896 10.0692C13.7896 9.00922 14.5796 8.17922 15.5896 8.17922C16.0996 8.17922 16.4896 8.35922 16.9296 8.79922V7.53922C16.4596 7.29922 16.0696 7.19922 15.6096 7.19922C13.9996 7.19922 12.6896 8.47922 12.6896 10.0792ZM25.4496 11.0192L23.9796 7.31922H22.8096L25.1396 12.9592H25.7196L28.0896 7.31922H26.9296L25.4496 11.0192ZM28.5796 12.8192H31.6196V11.8892H29.6496V10.4092H31.5496V9.47922H29.6496V8.25922H31.6196V7.31922H28.5796V12.8192ZM35.8696 8.94922C35.8696 7.91922 35.1596 7.32922 33.9196 7.32922H32.3296V12.8292H33.3996V10.6192H33.5396L35.0196 12.8292H36.3396L34.6096 10.5092C35.4196 10.3392 35.8696 9.78922 35.8696 8.94922ZM33.7096 9.85922H33.3996V8.18922H33.7296C34.3996 8.18922 34.7596 8.46922 34.7596 9.00922C34.7596 9.55922 34.3996 9.85922 33.7096 9.85922Z" fill="#231F20"/>
<path d="M20.2191 13.0202C20.9964 13.0202 21.7419 12.7114 22.2916 12.1617C22.8413 11.6121 23.1501 10.8666 23.1501 10.0892C23.1501 9.31185 22.8413 8.56634 22.2916 8.01667C21.7419 7.467 20.9964 7.1582 20.2191 7.1582C19.4417 7.1582 18.6962 7.467 18.1466 8.01667C17.5969 8.56634 17.2881 9.31185 17.2881 10.0892C17.2881 10.8666 17.5969 11.6121 18.1466 12.1617C18.6962 12.7114 19.4417 13.0202 20.2191 13.0202Z" fill="url(#paint0_linear_128_2740)"/>
<path opacity="0.65" d="M20.2191 13.0202C20.9964 13.0202 21.7419 12.7114 22.2916 12.1617C22.8413 11.6121 23.1501 10.8666 23.1501 10.0892C23.1501 9.31185 22.8413 8.56634 22.2916 8.01667C21.7419 7.467 20.9964 7.1582 20.2191 7.1582C19.4417 7.1582 18.6962 7.467 18.1466 8.01667C17.5969 8.56634 17.2881 9.31185 17.2881 10.0892C17.2881 10.8666 17.5969 11.6121 18.1466 12.1617C18.6962 12.7114 19.4417 13.0202 20.2191 13.0202Z" fill="url(#paint1_linear_128_2740)"/>
<path d="M36.6291 7.66563C36.6291 7.56563 36.5591 7.51562 36.4491 7.51562H36.2891V7.99563H36.4091V7.80562L36.5491 7.99563H36.6891L36.5291 7.79563C36.5891 7.78563 36.6291 7.73563 36.6291 7.66563ZM36.4291 7.73563H36.4091V7.60563H36.4291C36.4891 7.60563 36.5191 7.62563 36.5191 7.66563C36.5191 7.71563 36.4891 7.73563 36.4291 7.73563Z" fill="#231F20"/>
<path d="M36.4698 7.33594C36.2398 7.33594 36.0498 7.52594 36.0498 7.75594C36.0498 7.98594 36.2398 8.17594 36.4698 8.17594C36.6998 8.17594 36.8898 7.98594 36.8898 7.75594C36.8898 7.52594 36.6998 7.33594 36.4698 7.33594ZM36.4698 8.10594C36.2898 8.10594 36.1298 7.95594 36.1298 7.75594C36.1298 7.56594 36.2798 7.40594 36.4698 7.40594C36.6498 7.40594 36.7998 7.56594 36.7998 7.75594C36.7998 7.94594 36.6498 8.10594 36.4698 8.10594Z" fill="#231F20"/>
<path d="M37.0592 13.1445C37.0592 13.1445 27.1492 20.0335 9.03516 23.1605H35.0582C35.5858 23.1605 36.0921 22.952 36.4667 22.5804C36.8414 22.2088 37.0539 21.7042 37.0582 21.1765L37.0822 18.1565L37.0592 13.1445Z" fill="#F48120"/>
<defs>
<linearGradient id="paint0_linear_128_2740" x1="21.7161" y1="12.4352" x2="19.6911" y2="9.2642" gradientUnits="userSpaceOnUse">
<stop stop-color="#F89F20"/>
<stop offset="0.25" stop-color="#F79A20"/>
<stop offset="0.533" stop-color="#F68D20"/>
<stop offset="0.62" stop-color="#F58720"/>
<stop offset="0.723" stop-color="#F48120"/>
<stop offset="1" stop-color="#F37521"/>
</linearGradient>
<linearGradient id="paint1_linear_128_2740" x1="21.3971" y1="12.3922" x2="18.4371" y2="6.6062" gradientUnits="userSpaceOnUse">
<stop stop-color="#F58720"/>
<stop offset="0.359" stop-color="#E16F27"/>
<stop offset="0.703" stop-color="#D4602C"/>
<stop offset="0.982" stop-color="#D05B2E"/>
</linearGradient>
</defs>
</svg>
