<svg width="132" height="24" viewBox="0 0 132 24" fill="none" xmlns="http://www.w3.org/2000/svg">
<path d="M12 0L15.5267 7.1459L23.4127 8.2918L17.7063 13.8541L19.0534 21.7082L12 18L4.94658 21.7082L6.29366 13.8541L0.587322 8.2918L8.47329 7.1459L12 0Z" fill="#FFC107"/>
<path d="M39 0L42.5267 7.1459L50.4127 8.2918L44.7063 13.8541L46.0534 21.7082L39 18L31.9466 21.7082L33.2937 13.8541L27.5873 8.2918L35.4733 7.1459L39 0Z" fill="#FFC107"/>
<path d="M66 0L69.5267 7.1459L77.4127 8.2918L71.7063 13.8541L73.0534 21.7082L66 18L58.9466 21.7082L60.2937 13.8541L54.5873 8.2918L62.4733 7.1459L66 0Z" fill="#FFC107"/>
<path d="M93 0L96.5267 7.1459L104.413 8.2918L98.7063 13.8541L100.053 21.7082L93 18L85.9466 21.7082L87.2937 13.8541L81.5873 8.2918L89.4733 7.1459L93 0Z" fill="#FFC107"/>
<path d="M120 0L123.527 7.1459L131.413 8.2918L125.706 13.8541L127.053 21.7082L120 18L112.947 21.7082L114.294 13.8541L108.587 8.2918L116.473 7.1459L120 0Z" fill="#FFC107"/>
</svg>
