<svg width="20" height="25" viewBox="0 0 20 25" fill="none" xmlns="http://www.w3.org/2000/svg">
<g clip-path="url(#clip0_190_354)">
<path d="M10.052 2.69234L10.368 1.95319C10.2681 1.91046 10.1606 1.88843 10.052 1.88843C9.94336 1.88843 9.83585 1.91046 9.73598 1.95319L10.052 2.69234ZM10.052 21.9744L9.6535 22.6717C9.77487 22.7411 9.91222 22.7775 10.052 22.7775C10.1918 22.7775 10.3291 22.7411 10.4505 22.6717L10.052 21.9744ZM9.73491 1.95427L2.88765 4.88835L3.51752 6.36663L10.3669 3.43148L9.73491 1.95427ZM1.75 6.61195V13.9605H3.35683V6.61195H1.75ZM5.39323 20.238L9.6535 22.6717L10.4505 21.2771L6.19023 18.8421L5.39323 20.238ZM10.4505 22.6717L14.7107 20.238L13.9137 18.8421L9.6535 21.2771L10.4505 22.6717ZM18.3539 13.9595V6.61302H16.7472V13.9616L18.3539 13.9595ZM17.2185 4.88942L10.368 1.95319L9.73598 3.4304L16.5854 6.36663L17.2185 4.88942ZM18.3539 6.61302C18.3539 5.86316 17.9073 5.18508 17.2185 4.88942L16.5854 6.36663C16.6335 6.38739 16.6745 6.42178 16.7032 6.46557C16.732 6.50937 16.7472 6.56063 16.7472 6.61302H18.3539ZM14.7107 20.238C15.8174 19.6055 16.7373 18.6918 17.377 17.5894C18.0168 16.4871 18.3538 15.2341 18.3539 13.9595L16.7472 13.9616C16.747 14.9528 16.4848 15.9253 15.9872 16.7826C15.4896 17.6398 14.7743 18.3503 13.9137 18.8421L14.7107 20.238ZM1.75 13.9605C1.75011 15.2351 2.08714 16.4871 2.72695 17.5894C3.36674 18.6918 4.28658 19.6055 5.39323 20.238L6.19023 18.8421C5.32951 18.3502 4.6141 17.6395 4.11653 16.7821C3.61894 15.9246 3.35686 14.9519 3.35683 13.9605H1.75ZM2.8855 4.88835C2.5485 5.03293 2.2613 5.27318 2.05947 5.57935C1.85765 5.88552 1.75005 6.24524 1.75 6.61195H3.35683C3.35683 6.50483 3.42111 6.40734 3.51967 6.3645L2.8855 4.88835Z" fill="#19A8EC"/>
<path d="M10.368 1.95319L10.052 2.69234L9.73598 1.95319C9.83585 1.91046 9.94336 1.88843 10.052 1.88843C10.1606 1.88843 10.2681 1.91046 10.368 1.95319ZM10.368 1.95319L17.2185 4.88942M10.368 1.95319L9.73598 3.4304L16.5854 6.36663M17.2185 4.88942L16.5854 6.36663M17.2185 4.88942C17.9073 5.18508 18.3539 5.86316 18.3539 6.61302M16.5854 6.36663L16.9014 5.62749M16.5854 6.36663C16.6335 6.38739 16.6745 6.42178 16.7032 6.46557C16.732 6.50937 16.7472 6.56063 16.7472 6.61302M9.6535 22.6717L10.052 21.9744L10.4505 22.6717M9.6535 22.6717C9.77487 22.7411 9.91222 22.7775 10.052 22.7775C10.1918 22.7775 10.3291 22.7411 10.4505 22.6717M9.6535 22.6717L5.39323 20.238M9.6535 22.6717L10.4505 21.2771L6.19023 18.8421M10.4505 22.6717L14.7107 20.238M10.4505 22.6717L9.6535 21.2771L13.9137 18.8421M5.39323 20.238L5.7928 19.5395M5.39323 20.238L6.19023 18.8421M5.39323 20.238C4.28658 19.6055 3.36674 18.6918 2.72695 17.5894C2.08714 16.4871 1.75011 15.2351 1.75 13.9605M6.19023 18.8421C5.32951 18.3502 4.6141 17.6395 4.11653 16.7821C3.61894 15.9246 3.35686 14.9519 3.35683 13.9605M14.7107 20.238L13.9137 18.8421M14.7107 20.238C15.8174 19.6055 16.7373 18.6918 17.377 17.5894C18.0168 16.4871 18.3538 15.2341 18.3539 13.9595M13.9137 18.8421C14.7743 18.3503 15.4896 17.6398 15.9872 16.7826C16.4848 15.9253 16.747 14.9528 16.7472 13.9616M16.7472 6.61302H18.3539M16.7472 6.61302V13.9616M1.75 13.9605V6.61195M1.75 13.9605H3.35683M1.75 6.61195H3.35683M1.75 6.61195C1.75005 6.24524 1.85765 5.88552 2.05947 5.57935C2.2613 5.27318 2.5485 5.03293 2.8855 4.88835L3.51967 6.3645C3.42111 6.40734 3.35683 6.50483 3.35683 6.61195M3.35683 6.61195V13.9605M18.3539 13.9595V6.61302M18.3539 13.9595L16.7472 13.9616M9.73491 1.95427L2.88765 4.88835L3.51752 6.36663L10.3669 3.43148L9.73491 1.95427Z" stroke="#19A8EC" stroke-width="1.50571" stroke-linecap="round" stroke-linejoin="bevel"/>
<path d="M2.52734 6.61694L9.30303 2.85266L17.5844 5.86409L16.8316 17.9098L10.0559 21.674L2.52734 17.1569V6.61694Z" fill="#19A8EC"/>
<path d="M13.2584 10.1875L8.97351 14.4723L6.83105 12.3299" stroke="white" stroke-width="2.25856" stroke-linecap="round" stroke-linejoin="round"/>
</g>
<defs>
<clipPath id="clip0_190_354">
<rect width="19.4286" height="24" fill="white" transform="translate(0.286133 0.5)"/>
</clipPath>
</defs>
</svg>
