<svg width="39" height="25" viewBox="0 0 39 25" fill="none" xmlns="http://www.w3.org/2000/svg">
<mask id="mask0_128_2727" style="mask-type:luminance" maskUnits="userSpaceOnUse" x="0" y="0" width="39" height="25">
<path d="M0.0302734 0.160156H38.0303V24.1602H0.0302734V0.160156Z" fill="white"/>
</mask>
<g mask="url(#mask0_128_2727)">
<path d="M35.0303 0.160156H3.03027C1.37342 0.160156 0.0302734 1.5033 0.0302734 3.16016V21.1602C0.0302734 22.817 1.37342 24.1602 3.03027 24.1602H35.0303C36.6871 24.1602 38.0303 22.817 38.0303 21.1602V3.16016C38.0303 1.5033 36.6871 0.160156 35.0303 0.160156Z" fill="#F5F5F5"/>
<path d="M35.0303 0.660156H3.03027C1.64956 0.660156 0.530273 1.77944 0.530273 3.16016V21.1602C0.530273 22.5409 1.64956 23.6602 3.03027 23.6602H35.0303C36.411 23.6602 37.5303 22.5409 37.5303 21.1602V3.16016C37.5303 1.77944 36.411 0.660156 35.0303 0.660156Z" stroke="black" stroke-opacity="0.07"/>
<path d="M37.0303 4.16016H1.03027V7.16016H37.0303V4.16016ZM4.03027 19.1602C4.03027 18.8949 4.13563 18.6406 4.32317 18.453C4.5107 18.2655 4.76506 18.1602 5.03027 18.1602H14.0303C14.2955 18.1602 14.5498 18.2655 14.7374 18.453C14.9249 18.6406 15.0303 18.8949 15.0303 19.1602C15.0303 19.4254 14.9249 19.6797 14.7374 19.8673C14.5498 20.0548 14.2955 20.1602 14.0303 20.1602H5.03027C4.76506 20.1602 4.5107 20.0548 4.32317 19.8673C4.13563 19.6797 4.03027 19.4254 4.03027 19.1602ZM29.0303 19.1602C29.0303 18.8949 29.1356 18.6406 29.3232 18.453C29.5107 18.2655 29.7651 18.1602 30.0303 18.1602H33.0303C33.2955 18.1602 33.5498 18.2655 33.7374 18.453C33.9249 18.6406 34.0303 18.8949 34.0303 19.1602C34.0303 19.4254 33.9249 19.6797 33.7374 19.8673C33.5498 20.0548 33.2955 20.1602 33.0303 20.1602H30.0303C29.7651 20.1602 29.5107 20.0548 29.3232 19.8673C29.1356 19.6797 29.0303 19.4254 29.0303 19.1602Z" fill="#707070"/>
</g>
</svg>
