<svg width="25" height="25" viewBox="0 0 25 25" fill="none" xmlns="http://www.w3.org/2000/svg">
<path fill-rule="evenodd" clip-rule="evenodd" d="M24.875 12.5C24.875 5.66563 19.3344 0.125 12.5 0.124999C5.66563 0.124999 0.125002 5.66562 0.125001 12.5C0.125001 19.3344 5.66563 24.875 12.5 24.875C19.3344 24.875 24.875 19.3344 24.875 12.5ZM12.5 22.625C13.8296 22.625 15.1462 22.3631 16.3747 21.8543C17.6031 21.3455 18.7193 20.5997 19.6595 19.6595C20.5996 18.7193 21.3455 17.6031 21.8543 16.3747C22.3631 15.1462 22.625 13.8296 22.625 12.5C22.625 11.1704 22.3631 9.85375 21.8543 8.62533C21.3455 7.39691 20.5996 6.28074 19.6595 5.34054C18.7193 4.40035 17.6031 3.65455 16.3747 3.14572C15.1462 2.63689 13.8296 2.375 12.5 2.375C9.81468 2.375 7.23935 3.44174 5.34055 5.34054C3.44174 7.23935 2.375 9.81468 2.375 12.5C2.375 15.1853 3.44174 17.7606 5.34055 19.6595C7.23935 21.5583 9.81468 22.625 12.5 22.625Z" fill="#1890D5"/>
<path d="M12.5 22.625C13.8296 22.625 15.1462 22.3631 16.3747 21.8543C17.6031 21.3455 18.7193 20.5997 19.6595 19.6595C20.5996 18.7193 21.3455 17.6031 21.8543 16.3747C22.3631 15.1462 22.625 13.8296 22.625 12.5C22.625 11.1704 22.3631 9.85375 21.8543 8.62533C21.3455 7.39691 20.5996 6.28074 19.6595 5.34054C18.7193 4.40035 17.6031 3.65455 16.3747 3.14572C15.1462 2.63689 13.8296 2.375 12.5 2.375C9.81468 2.375 7.23935 3.44174 5.34055 5.34054C3.44174 7.23935 2.375 9.81468 2.375 12.5C2.375 15.1853 3.44174 17.7606 5.34055 19.6595C7.23935 21.5583 9.81468 22.625 12.5 22.625Z" fill="#1890D5"/>
<path d="M17.2734 11.4716L12.5001 16.2439L7.72669 11.4716L9.31744 9.88086L12.5001 13.0624L15.6816 9.88086L17.2734 11.4716Z" fill="white"/>
</svg>
