<svg width="116" height="20" viewBox="0 0 116 20" fill="none" xmlns="http://www.w3.org/2000/svg">
<path d="M10 0L12.9389 5.95492L19.5106 6.90983L14.7553 11.5451L15.8779 18.0902L10 15L4.12215 18.0902L5.24472 11.5451L0.489435 6.90983L7.06107 5.95492L10 0Z" fill="#FFC107"/>
<path d="M34 0L36.9389 5.95492L43.5106 6.90983L38.7553 11.5451L39.8779 18.0902L34 15L28.1221 18.0902L29.2447 11.5451L24.4894 6.90983L31.0611 5.95492L34 0Z" fill="#FFC107"/>
<path d="M58 0L60.9389 5.95492L67.5106 6.90983L62.7553 11.5451L63.8779 18.0902L58 15L52.1221 18.0902L53.2447 11.5451L48.4894 6.90983L55.0611 5.95492L58 0Z" fill="#FFC107"/>
<path d="M82 0L84.9389 5.95492L91.5106 6.90983L86.7553 11.5451L87.8779 18.0902L82 15L76.1221 18.0902L77.2447 11.5451L72.4894 6.90983L79.0611 5.95492L82 0Z" fill="#FFC107"/>
<path d="M106 0L108.939 5.95492L115.511 6.90983L110.755 11.5451L111.878 18.0902L106 15L100.122 18.0902L101.245 11.5451L96.4894 6.90983L103.061 5.95492L106 0Z" fill="#FFC107"/>
</svg>
