<svg width="39" height="25" viewBox="0 0 39 25" fill="none" xmlns="http://www.w3.org/2000/svg">
<path opacity="0.07" d="M35.0195 0.160156H3.01953C1.31953 0.160156 0.0195312 1.46016 0.0195312 3.16016V21.1602C0.0195312 22.8602 1.41953 24.1602 3.01953 24.1602H35.0195C36.7195 24.1602 38.0195 22.8602 38.0195 21.1602V3.16016C38.0195 1.46016 36.6195 0.160156 35.0195 0.160156Z" fill="black"/>
<path d="M35.0195 1.16016C36.1195 1.16016 37.0195 2.06016 37.0195 3.16016V21.1602C37.0195 22.2602 36.1195 23.1602 35.0195 23.1602H3.01953C1.91953 23.1602 1.01953 22.2602 1.01953 21.1602V3.16016C1.01953 2.06016 1.91953 1.16016 3.01953 1.16016H35.0195Z" fill="white"/>
<path d="M15.0195 19.1602C18.8855 19.1602 22.0195 16.0261 22.0195 12.1602C22.0195 8.29416 18.8855 5.16016 15.0195 5.16016C11.1535 5.16016 8.01953 8.29416 8.01953 12.1602C8.01953 16.0261 11.1535 19.1602 15.0195 19.1602Z" fill="#EB001B"/>
<path d="M23.0195 19.1602C26.8855 19.1602 30.0195 16.0261 30.0195 12.1602C30.0195 8.29416 26.8855 5.16016 23.0195 5.16016C19.1535 5.16016 16.0195 8.29416 16.0195 12.1602C16.0195 16.0261 19.1535 19.1602 23.0195 19.1602Z" fill="#F79E1B"/>
<path d="M22.0195 12.1609C22.0195 9.76094 20.8195 7.66094 19.0195 6.46094C17.2195 7.76094 16.0195 9.86094 16.0195 12.1609C16.0195 14.4609 17.2195 16.6609 19.0195 17.8609C20.8195 16.6609 22.0195 14.5609 22.0195 12.1609Z" fill="#FF5F00"/>
</svg>
