<svg width="16" height="16" viewBox="0 0 16 16" fill="none" xmlns="http://www.w3.org/2000/svg">
<path d="M6.69044 1.49134C7.11499 0.844033 8.06389 0.844033 8.48843 1.49134C8.78818 1.94834 9.38308 2.10775 9.87118 1.86184C10.5625 1.51353 11.3843 1.98798 11.4283 2.76084C11.4594 3.30648 11.8948 3.74199 12.4405 3.77306C13.2133 3.81709 13.6879 4.63885 13.3395 5.33017C13.0936 5.81826 13.253 6.41317 13.71 6.7129C14.3573 7.13746 14.3573 8.08636 13.71 8.5109C13.253 8.81064 13.0936 9.40554 13.3395 9.89364C13.6879 10.585 13.2133 11.4067 12.4405 11.4507C11.8948 11.4818 11.4594 11.9174 11.4283 12.463C11.3843 13.2359 10.5625 13.7103 9.87118 13.3619C9.38308 13.116 8.78818 13.2754 8.48845 13.7325C8.06389 14.3798 7.11499 14.3798 6.69044 13.7325C6.39071 13.2754 5.79579 13.116 5.30771 13.3619C4.61639 13.7103 3.79463 13.2359 3.7506 12.463C3.71953 11.9174 3.28402 11.4818 2.73838 11.4507C1.96552 11.4067 1.49107 10.585 1.83938 9.89364C2.08529 9.40554 1.92588 8.81064 1.46888 8.5109C0.821572 8.08636 0.821572 7.13746 1.46888 6.7129C1.92588 6.41317 2.08529 5.81826 1.83938 5.33017C1.49107 4.63885 1.96552 3.81709 2.73838 3.77306C3.28402 3.74199 3.71953 3.30648 3.7506 2.76084C3.79463 1.98798 4.61639 1.51353 5.30771 1.86184C5.79579 2.10775 6.39071 1.94834 6.69044 1.49134Z" fill="#00B67A"/>
<path d="M5.34668 7.61284L6.3635 8.62967C6.67347 8.93964 6.82846 9.09463 7.01706 9.08607C7.20565 9.07752 7.34597 8.90913 7.62661 8.57237L9.82601 5.93311" stroke="white" stroke-width="0.856157" stroke-linecap="round"/>
</svg>
